<svg width="25" height="24" viewBox="0 0 25 24" fill="none" xmlns="http://www.w3.org/2000/svg">
<path d="M11.375 4H4.375C3.84457 4 3.33586 4.21071 2.96079 4.58579C2.58571 4.96086 2.375 5.46957 2.375 6V20C2.375 20.5304 2.58571 21.0391 2.96079 21.4142C3.33586 21.7893 3.84457 22 4.375 22H18.375C18.9054 22 19.4141 21.7893 19.7892 21.4142C20.1643 21.0391 20.375 20.5304 20.375 20V13" stroke="#624DE3" stroke-width="2" stroke-linecap="round" stroke-linejoin="round"/>
<path d="M18.875 2.49998C19.2728 2.10216 19.8124 1.87866 20.375 1.87866C20.9376 1.87866 21.4772 2.10216 21.875 2.49998C22.2728 2.89781 22.4963 3.43737 22.4963 3.99998C22.4963 4.56259 22.2728 5.10216 21.875 5.49998L12.375 15L8.375 16L9.375 12L18.875 2.49998Z" stroke="#624DE3" stroke-width="2" stroke-linecap="round" stroke-linejoin="round"/>
</svg>
