<svg width="25" height="24" viewBox="0 0 25 24" fill="none" xmlns="http://www.w3.org/2000/svg">
<path d="M3.375 6H5.375H21.375" stroke="#A30D11" stroke-width="2" stroke-linecap="round" stroke-linejoin="round"/>
<path d="M8.375 6V4C8.375 3.46957 8.58571 2.96086 8.96079 2.58579C9.33586 2.21071 9.84457 2 10.375 2H14.375C14.9054 2 15.4141 2.21071 15.7892 2.58579C16.1643 2.96086 16.375 3.46957 16.375 4V6M19.375 6V20C19.375 20.5304 19.1643 21.0391 18.7892 21.4142C18.4141 21.7893 17.9054 22 17.375 22H7.375C6.84457 22 6.33586 21.7893 5.96079 21.4142C5.58571 21.0391 5.375 20.5304 5.375 20V6H19.375Z" stroke="#A30D11" stroke-width="2" stroke-linecap="round" stroke-linejoin="round"/>
<path d="M10.375 11V17" stroke="#A30D11" stroke-width="2" stroke-linecap="round" stroke-linejoin="round"/>
<path d="M14.375 11V17" stroke="#A30D11" stroke-width="2" stroke-linecap="round" stroke-linejoin="round"/>
</svg>
